<mxfile host="app.diagrams.net" modified="2021-09-27T17:59:49.802Z" agent="5.0 (Windows NT 10.0; Win64; x64) AppleWebKit/537.36 (KHTML, like Gecko) Chrome/93.0.4577.82 Safari/537.36 Edg/93.0.961.52" etag="ICuysaWkVgO4BTi-Y7vI" version="15.3.4" type="github">
  <diagram id="kgpKYQtTHZ0yAKxKKP6v" name="Page-1">
    <mxGraphModel dx="813" dy="435" grid="1" gridSize="10" guides="1" tooltips="1" connect="1" arrows="1" fold="1" page="1" pageScale="1" pageWidth="850" pageHeight="1100" math="0" shadow="0">
      <root>
        <mxCell id="0" />
        <mxCell id="1" parent="0" />
        <mxCell id="umlg6nyilTyVGEpnBzaW-1" value="Ticker Segue" style="rounded=1;whiteSpace=wrap;html=1;absoluteArcSize=1;arcSize=14;strokeWidth=2;hachureGap=4;pointerEvents=0;" parent="1" vertex="1">
          <mxGeometry x="310" y="320" width="150" height="100" as="geometry" />
        </mxCell>
        <mxCell id="umlg6nyilTyVGEpnBzaW-2" value="News Tab" style="rounded=1;whiteSpace=wrap;html=1;absoluteArcSize=1;arcSize=14;strokeWidth=2;hachureGap=4;pointerEvents=0;" parent="1" vertex="1">
          <mxGeometry x="310" y="50" width="150" height="100" as="geometry" />
        </mxCell>
        <mxCell id="umlg6nyilTyVGEpnBzaW-3" value="TabBarController" style="rounded=1;whiteSpace=wrap;html=1;absoluteArcSize=1;arcSize=14;strokeWidth=2;hachureGap=4;pointerEvents=0;" parent="1" vertex="1">
          <mxGeometry x="80" y="150" width="150" height="100" as="geometry" />
        </mxCell>
        <mxCell id="umlg6nyilTyVGEpnBzaW-4" value="" style="endArrow=classic;html=1;startSize=14;endSize=14;sourcePerimeterSpacing=8;targetPerimeterSpacing=8;" parent="1" edge="1">
          <mxGeometry width="50" height="50" relative="1" as="geometry">
            <mxPoint x="240" y="150" as="sourcePoint" />
            <mxPoint x="300" y="120" as="targetPoint" />
          </mxGeometry>
        </mxCell>
        <mxCell id="umlg6nyilTyVGEpnBzaW-5" value="" style="endArrow=classic;html=1;startSize=14;endSize=14;sourcePerimeterSpacing=8;targetPerimeterSpacing=8;" parent="1" edge="1">
          <mxGeometry width="50" height="50" relative="1" as="geometry">
            <mxPoint x="150" y="260" as="sourcePoint" />
            <mxPoint x="150" y="310" as="targetPoint" />
          </mxGeometry>
        </mxCell>
        <mxCell id="umlg6nyilTyVGEpnBzaW-6" value="&lt;font&gt;&lt;font style=&quot;font-size: 8px&quot;&gt;Display Info and Chart&lt;/font&gt;&lt;br&gt;&lt;/font&gt;" style="strokeWidth=2;html=1;shape=mxgraph.flowchart.decision;whiteSpace=wrap;hachureGap=4;pointerEvents=0;" parent="1" vertex="1">
          <mxGeometry x="550" y="330" width="80" height="80" as="geometry" />
        </mxCell>
        <mxCell id="umlg6nyilTyVGEpnBzaW-7" value="" style="endArrow=classic;html=1;startSize=14;endSize=14;sourcePerimeterSpacing=8;targetPerimeterSpacing=8;" parent="1" edge="1">
          <mxGeometry width="50" height="50" relative="1" as="geometry">
            <mxPoint x="470" y="369.71" as="sourcePoint" />
            <mxPoint x="540" y="370" as="targetPoint" />
          </mxGeometry>
        </mxCell>
        <mxCell id="umlg6nyilTyVGEpnBzaW-8" value="" style="curved=1;endArrow=classic;html=1;startSize=14;endSize=14;sourcePerimeterSpacing=8;targetPerimeterSpacing=8;" parent="1" edge="1">
          <mxGeometry width="50" height="50" relative="1" as="geometry">
            <mxPoint x="642" y="390" as="sourcePoint" />
            <mxPoint x="630" y="350" as="targetPoint" />
            <Array as="points">
              <mxPoint x="702" y="390" />
              <mxPoint x="652" y="330" />
            </Array>
          </mxGeometry>
        </mxCell>
        <mxCell id="umlg6nyilTyVGEpnBzaW-9" value="&lt;font style=&quot;font-size: 10px&quot;&gt;API request&lt;/font&gt;" style="shape=parallelogram;html=1;strokeWidth=2;perimeter=parallelogramPerimeter;whiteSpace=wrap;rounded=1;arcSize=12;size=0.23;hachureGap=4;pointerEvents=0;" parent="1" vertex="1">
          <mxGeometry x="690" y="330" width="83.33" height="50" as="geometry" />
        </mxCell>
        <mxCell id="umlg6nyilTyVGEpnBzaW-10" value="" style="endArrow=classic;html=1;startSize=14;endSize=14;sourcePerimeterSpacing=8;targetPerimeterSpacing=8;" parent="1" edge="1">
          <mxGeometry width="50" height="50" relative="1" as="geometry">
            <mxPoint x="540" y="400.00000000000006" as="sourcePoint" />
            <mxPoint x="470" y="400" as="targetPoint" />
          </mxGeometry>
        </mxCell>
        <mxCell id="umlg6nyilTyVGEpnBzaW-12" value="&lt;font style=&quot;font-size: 10px&quot;&gt;Displays Preview&lt;/font&gt;" style="text;html=1;strokeColor=none;fillColor=none;align=center;verticalAlign=middle;whiteSpace=wrap;rounded=0;hachureGap=4;pointerEvents=0;" parent="1" vertex="1">
          <mxGeometry x="315" y="90" width="140" height="70" as="geometry" />
        </mxCell>
        <mxCell id="-QrMBVAoootN84Ct4IYk-1" value="Price Grid (Tickers)" style="rounded=1;whiteSpace=wrap;html=1;absoluteArcSize=1;arcSize=14;strokeWidth=2;hachureGap=4;pointerEvents=0;" parent="1" vertex="1">
          <mxGeometry x="80" y="320" width="150" height="100" as="geometry" />
        </mxCell>
        <mxCell id="-QrMBVAoootN84Ct4IYk-2" value="" style="endArrow=classic;html=1;startSize=14;endSize=14;sourcePerimeterSpacing=8;targetPerimeterSpacing=8;" parent="1" edge="1">
          <mxGeometry width="50" height="50" relative="1" as="geometry">
            <mxPoint x="250" y="369.71" as="sourcePoint" />
            <mxPoint x="300" y="369.71" as="targetPoint" />
          </mxGeometry>
        </mxCell>
        <mxCell id="-QrMBVAoootN84Ct4IYk-3" value="&lt;font style=&quot;font-size: 10px&quot;&gt;Select from Grid&lt;/font&gt;" style="text;html=1;strokeColor=none;fillColor=none;align=center;verticalAlign=middle;whiteSpace=wrap;rounded=0;hachureGap=4;pointerEvents=0;" parent="1" vertex="1">
          <mxGeometry x="230" y="330" width="80" height="40" as="geometry" />
        </mxCell>
        <mxCell id="Jmc1PHZmzK2pr70MJlyV-1" value="" style="endArrow=classic;html=1;startSize=14;endSize=14;sourcePerimeterSpacing=8;targetPerimeterSpacing=8;" edge="1" parent="1">
          <mxGeometry width="50" height="50" relative="1" as="geometry">
            <mxPoint x="470" y="99.66000000000014" as="sourcePoint" />
            <mxPoint x="540" y="99.9500000000001" as="targetPoint" />
          </mxGeometry>
        </mxCell>
        <mxCell id="Jmc1PHZmzK2pr70MJlyV-2" value="View Full Webpage" style="rounded=1;whiteSpace=wrap;html=1;absoluteArcSize=1;arcSize=14;strokeWidth=2;hachureGap=4;pointerEvents=0;" vertex="1" parent="1">
          <mxGeometry x="560" y="50" width="150" height="100" as="geometry" />
        </mxCell>
        <mxCell id="Jmc1PHZmzK2pr70MJlyV-3" value="&lt;font style=&quot;font-size: 10px&quot;&gt;Select from Grid&lt;/font&gt;" style="text;html=1;strokeColor=none;fillColor=none;align=center;verticalAlign=middle;whiteSpace=wrap;rounded=0;hachureGap=4;pointerEvents=0;" vertex="1" parent="1">
          <mxGeometry x="470" y="60" width="80" height="40" as="geometry" />
        </mxCell>
      </root>
    </mxGraphModel>
  </diagram>
</mxfile>
